<mxfile host="app.diagrams.net" modified="2024-06-07T09:21:35.967Z" agent="Mozilla/5.0 (Macintosh; Intel Mac OS X 10_15_7) AppleWebKit/537.36 (KHTML, like Gecko) Chrome/116.0.0.0 Safari/537.36" version="24.5.1" etag="4ueKLlOemVNf68YFZmb8" type="github">
  <diagram name="Page-1" id="_VZQMkHffDfdvfgLRvp9">
    <mxGraphModel>
      <root>
        <mxCell id="0" />
        <mxCell id="1" parent="0" />
      </root>
    </mxGraphModel>
  </diagram>
</mxfile>
